# xmcd
#
# Track frame offsets: 
#        150
#        12195
#        25595
#        40075
#        53787
#        63092
#        87680
#        105197
#
# Disc length: 1669 seconds
#
# Revision: 0
# Processed by: cddbd v1.5.1PL2 Copyright (c) Steve Scherf et al.
# Submitted via: ExactAudioCopy v0.95b3
#
DISCID=53068308
DTITLE=Terry Fator - Lucky Guy
DYEAR=1999
DGENRE=Country
TTITLE0=Gandi's Got a Radio
TTITLE1=Can You Fix a Broken Heart
TTITLE2=Lucky Guy
TTITLE3=96 Neon
TTITLE4=Christmastime
TTITLE5=(How Do I Say ) Goodbye
TTITLE6=I can't Believe It's Over
TTITLE7=Monkey Song
EXTD=
EXTT0=
EXTT1=
EXTT2=
EXTT3=
EXTT4=
EXTT5=
EXTT6=
EXTT7=
PLAYORDER=
